<svg xmlns="http://www.w3.org/2000/svg" xml:space="preserve" x="0px" y="0px" style="enable-background:new 0 0 403.3 403.3" viewBox="0 0 403.3 403.3"><path fill="#cf4691" d="m275.1 180.9 1.8 2.7c.9 1.4 1.7 2.9 2.5 4.3 6.4 11.5 10.8 24.1 13 37.5 2.5 15.2 2.1 30.1-1.2 44.5-3.3 14.3-9 27.4-16.9 38.9-3.6 5.2-7.6 10-12 14.5v-26.7l.1-115.8h.3l6.7-7.9c2 2.6 3.9 5.2 5.7 8m-43.3-26.7-15 24.5-30.5 49.6-30.5-49.6-15-24.5h-22.1c2.9-2.4 6-4.8 9.2-6.9 11.9-8 25.2-13.2 39.7-15.6 14.5-2.4 28.9-1.8 42.8 1.9 13.9 3.7 26.6 9.8 37.9 18.3l3 2.4h-19.5zM80.2 260.8c-2.5-15.2-2.1-30.2 1.1-44.6 2.4-10.5 6-20.3 10.9-29.4 1.1-2 2.2-4 3.4-5.9.8-1.4 1.7-2.7 2.6-4.1 1.2-1.8 2.5-3.5 3.8-5.2l7.8 9.3h.3l.1 113.7v26.7c-5.4-5.6-10.2-11.9-14.5-18.7-7.8-12.6-13-26.6-15.5-41.8M351.9 53.2c2.2-2.5 4.2-5.7 5.6-9.9 1.4-5.1 2.1-18-10.9-21.7 1.6 2.8 5 9.9.9 19.2-.5-1.8-1.4-3.4-2.6-4.9 1.9 6.8-.2 13.8-4.7 19.3 3.4-5.7 4.8-14.2-2.1-24.7-3.3-5.4-16.3-15.4-32-8.4 4.4.9 18 3.5 20.2 14.1-2.3-1-4.7-1.6-7.3-1.8 8.7 3.8 13.8 10.9 15.2 18.7-2.8-6.9-8.6-13.7-20-13.8-7.1.6-19.4 5.7-21.3 25.3 2.7-3.6 7.1-13.9 19.9-11.4-2.9 1-4.7 3.3-4.4 6.9 8.7-7.4 19.4-5.9 25.1-.5-39.2 5-65.8 36.7-70.1 42.1l-24.9-16.3c-.5-.3-1.2-.2-1.5.3l-10.9 16.6c-2.2-.6-4.3-1.2-6.5-1.8-18.6-4.6-38-5.3-57.7-2-19.7 3.3-37.8 10.2-53.7 20.6-16 10.4-29.5 23.3-40.2 38.4-10.7 15.1-18.3 32.3-22.8 51-4.5 18.7-5 38.3-1.7 58.3 3.3 19.7 10.2 37.9 20.4 54 10.3 16.1 23.1 29.8 38.1 40.6 2.6 1.9 5.4 3.7 8.1 5.4 1.1.7 2.2 1.3 3.3 1.9l4.4.1.7-.3 29.8-15.1V233.1l37.9 62.8 37.9-62.8v120.3l29.8 15.1.7.3 5-.1c.9-.5 1.8-1.1 2.7-1.6.6-.3 1.1-.7 1.7-1 16.1-10.4 29.7-23.3 40.4-38.4 10.7-15.1 18.4-32.2 22.8-50.8 4.5-18.6 5.1-38 1.8-57.7-3.3-20-10.2-38.3-20.5-54.6-5.5-8.8-11.8-16.8-18.8-24l9.4-14.4c.3-.5.2-1.2-.3-1.5l-24.6-16.1c26.8-34.3 61.3-42.1 61.3-42.1-1.8 9.3-5.7 16.1-16.9 17.3 1.1 1.4 4.2 2 7.5.7-2.2 10.1-21.2 9.5-26.4 8.9 18 14.1 35.5 4.9 38.4 2.4 9.4-10.1 7.8-21 3.8-29.1 5.1 7.7 6.4 17.8 2 27.9 2-2.2 3.7-4.6 4.8-7.3 4 3.9-3 23.5-6 27.7 18.8-6.4 20.7-24.9 20.4-32.2-2.4-14.3-10.2-20.3-17.6-22.5 8.1 1.2 15.8 5.7 19.5 12.9.6-2.6-.9-5.5-2-6.4 9.1.8 11.8 13.5 12.6 17.2 9.3-26.1-18.7-31.2-23.7-30.8"/></svg>